<?xml version="1.0" encoding="UTF-8"?>
<svg id="Layer_2" data-name="Layer 2" xmlns="http://www.w3.org/2000/svg" viewBox="0 0 40.59 23.2">
  <defs>
    <style>
      .cls-1 {
        stroke-width: 0px;
      }
    </style>
  </defs>
  <g id="Super_kitchen" data-name="Super kitchen">
    <g>
      <path class="cls-1" d="m2.3,0c.45,0,.85.1,1.22.3.38.2.66.49.86.86.05.09.07.18.07.26,0,.18-.08.31-.25.39-.07.03-.16.05-.25.05-.17,0-.32-.12-.46-.37-.23-.43-.62-.64-1.18-.64-.42,0-.75.13-.97.39-.2.23-.3.51-.3.83,0,.27.09.53.28.78.14.2.34.38.58.56.12.08.37.24.74.46.65.39,1.1.71,1.35.96.53.51.79,1.11.79,1.78,0,.71-.26,1.28-.77,1.7-.41.34-.94.5-1.59.5-1,0-1.73-.32-2.18-.97-.16-.22-.23-.4-.23-.55,0-.13.05-.23.16-.32.08-.07.17-.1.28-.1.18,0,.36.13.52.39.27.44.75.66,1.44.66.41,0,.73-.1.98-.3.29-.24.43-.58.43-1.02,0-.49-.2-.91-.6-1.25-.34-.29-.82-.62-1.46-.98-.59-.33-1.02-.7-1.29-1.1-.22-.33-.33-.73-.33-1.2C.11,1.24.45.64,1.12.28c.35-.19.74-.28,1.18-.28Z"/>
      <path class="cls-1" d="m6.9.53v5.39c0,1.33.47,2,1.41,2s1.4-.67,1.4-2V.53c0-.07.02-.14.05-.19.08-.15.22-.22.42-.22.17,0,.3.06.39.17.05.07.08.15.08.25v5.41c0,.86-.17,1.53-.52,1.99-.14.19-.34.37-.59.53-.34.22-.75.33-1.22.33-.66,0-1.22-.22-1.67-.67-.45-.45-.68-1.18-.68-2.18V.53c0-.14.05-.24.16-.32.08-.06.18-.09.3-.09.14,0,.25.04.34.12.09.07.13.17.13.29Z"/>
      <path class="cls-1" d="m13.05,5.1v3.16c0,.1-.03.19-.09.26-.09.11-.22.16-.38.16-.18,0-.31-.06-.4-.19-.05-.07-.07-.15-.07-.24V1.25c0-.71.35-1.06,1.05-1.06h1.1c.71,0,1.29.19,1.75.56.54.43.81,1.05.81,1.86s-.24,1.45-.72,1.87c-.48.41-1.1.62-1.88.62h-1.17Zm0-.86h1.1c.54,0,.96-.14,1.25-.43.29-.29.43-.68.43-1.18,0-.54-.17-.94-.51-1.22-.28-.23-.65-.35-1.12-.35h-.87c-.19,0-.29.09-.29.28v2.91Z"/>
      <path class="cls-1" d="m19.03,4.63v2.82c0,.18.09.26.26.26h3.01c.09,0,.16.02.23.07.11.09.17.21.17.37,0,.18-.06.3-.19.39-.06.04-.13.05-.21.05h-3.18c-.7,0-1.04-.35-1.04-1.05V1.23c0-.69.35-1.04,1.04-1.04h2.96c.09,0,.16.02.23.07.11.09.17.21.17.37,0,.18-.06.3-.19.39-.06.04-.13.05-.21.05h-2.79c-.18,0-.26.09-.26.26v2.46h2.65c.11,0,.19.04.26.11.08.08.12.18.12.32,0,.17-.06.29-.18.36-.06.04-.12.05-.2.05h-2.65Z"/>
      <path class="cls-1" d="m24.96,4.64v3.62c0,.12-.04.22-.13.3s-.2.12-.33.12c-.31,0-.46-.14-.46-.42V1.22c0-.69.33-1.03,1-1.03h1.19c.6,0,1.12.13,1.55.39.23.14.43.34.59.61.2.35.3.74.3,1.18,0,.63-.2,1.15-.6,1.56-.26.27-.62.46-1.08.6l1.86,3.43c.05.08.07.16.07.25,0,.18-.08.32-.23.4-.08.05-.17.07-.27.07-.2,0-.34-.1-.45-.3l-1.89-3.73h-1.11Zm0-.83h1.12c.39,0,.72-.08.98-.25.4-.25.6-.65.6-1.19,0-.88-.53-1.32-1.6-1.32h-.86c-.17,0-.25.1-.25.29v2.47Z"/>
      <path class="cls-1" d="m.97,20.03v2.63c0,.12-.04.23-.13.3-.09.08-.2.12-.33.12-.2,0-.34-.07-.41-.22-.03-.05-.05-.12-.05-.2v-7.73c0-.1.03-.19.09-.25.09-.11.22-.16.37-.16.18,0,.31.06.4.19.04.06.06.14.06.22v3.69l2.71-3.91c.09-.13.22-.2.37-.2.09,0,.18.02.26.07.14.08.21.21.21.39,0,.09-.03.17-.08.25l-1.92,2.79,2.3,4.4c.04.08.06.15.06.23,0,.19-.09.33-.28.42-.07.04-.14.05-.22.05-.2,0-.35-.1-.44-.29l-2.04-4.1-.95,1.32Z"/>
      <path class="cls-1" d="m7.82,15.41h-.79c-.26,0-.39-.13-.39-.4s.13-.41.39-.41h2.54c.09,0,.17.02.23.07.1.08.15.19.15.33,0,.27-.13.41-.39.41h-.79v6.77h.79c.09,0,.17.02.23.07.1.08.15.19.15.33,0,.27-.13.41-.39.41h-2.54c-.26,0-.39-.13-.39-.4s.13-.41.39-.41h.79v-6.77Z"/>
      <path class="cls-1" d="m13.84,15.47h-1.75c-.11,0-.2-.04-.27-.11-.09-.09-.13-.2-.13-.33,0-.18.06-.3.19-.38.06-.04.13-.05.21-.05h4.44c.1,0,.19.03.26.09.09.08.14.2.14.34,0,.18-.06.31-.19.39-.06.04-.13.05-.21.05h-1.75v7.2c0,.12-.04.21-.13.29s-.2.12-.33.12c-.18,0-.31-.06-.4-.19-.04-.06-.06-.14-.06-.22v-7.2Z"/>
      <path class="cls-1" d="m20.34,14.4c.61,0,1.12.2,1.56.6.27.25.47.56.59.92.03.08.04.15.04.22,0,.2-.08.33-.25.4-.07.03-.15.05-.23.05-.15,0-.26-.05-.33-.16-.03-.04-.07-.13-.12-.28-.21-.6-.62-.9-1.23-.9-1.05,0-1.57,1.17-1.57,3.5,0,1.01.11,1.82.34,2.43.28.75.71,1.13,1.29,1.13.62,0,1.06-.41,1.31-1.22.08-.27.22-.4.43-.4.07,0,.13,0,.19.03.21.07.31.21.31.43,0,.25-.1.55-.3.91-.42.75-1.07,1.13-1.96,1.13-.77,0-1.38-.34-1.82-1.02-.52-.78-.77-1.92-.77-3.43,0-1.41.23-2.49.69-3.25.44-.73,1.05-1.1,1.85-1.1Z"/>
      <path class="cls-1" d="m24.95,19.03v3.63c0,.07-.02.13-.05.19-.08.15-.22.22-.42.22-.17,0-.3-.06-.39-.17-.05-.07-.08-.15-.08-.25v-7.73c0-.08.02-.15.06-.21.09-.14.22-.21.41-.21.18,0,.31.06.4.19.04.06.06.14.06.23v3.26h2.71v-3.26c0-.08.02-.15.06-.21.09-.14.22-.21.41-.21.18,0,.31.06.4.19.05.07.07.14.07.23v7.73c0,.07-.02.13-.05.19-.08.15-.22.22-.42.22-.17,0-.3-.06-.39-.17-.05-.07-.08-.15-.08-.25v-3.63h-2.71Z"/>
      <path class="cls-1" d="m31.03,19.03v2.82c0,.18.09.26.26.26h3.01c.09,0,.16.02.23.07.11.09.17.21.17.37,0,.18-.06.3-.19.39-.06.04-.13.05-.21.05h-3.18c-.7,0-1.04-.35-1.04-1.05v-6.32c0-.69.35-1.04,1.04-1.04h2.96c.09,0,.16.02.23.07.11.09.17.21.17.37,0,.18-.06.3-.19.39-.06.04-.13.05-.21.05h-2.79c-.18,0-.26.09-.26.26v2.46h2.65c.11,0,.19.04.26.11.08.08.12.18.12.32,0,.17-.06.29-.18.36-.06.04-.12.05-.2.05h-2.65Z"/>
      <path class="cls-1" d="m36.83,16.14l.06,6.55c0,.07-.02.13-.05.19-.08.14-.21.21-.39.21-.17,0-.29-.06-.38-.19-.04-.06-.06-.13-.06-.21v-7.52c0-.44.22-.66.65-.66.26,0,.45.13.56.39l2.55,6.05-.06-6.05c0-.05,0-.1.02-.13.07-.17.21-.26.42-.26.29,0,.43.13.43.39v7.71c0,.33-.16.5-.49.5-.23,0-.4-.13-.51-.39l-2.77-6.57Z"/>
    </g>
  </g>
</svg>