<?xml version="1.0" encoding="UTF-8"?>
<svg id="Layer_2" data-name="Layer 2" xmlns="http://www.w3.org/2000/svg" viewBox="0 0 36 30.43">
  <defs>
    <style>
      .cls-1 {
        fill: none;
        stroke: #000;
        stroke-miterlimit: 10;
      }
    </style>
  </defs>
  <g id="Layer_1-2" data-name="Layer 1">
    <g>
      <rect class="cls-1" x=".5" y="14.93" width="35" height="15" rx="3.89" ry="3.89"/>
      <rect class="cls-1" x="2.5" y="16.93" width="31" height="11" rx="2.66" ry="2.66"/>
      <path class="cls-1" d="m16.1.43s-4.24,2.62-4.1,4.05,4.05,2.62,4.05,4.05-4.05,4.05-4.05,4.05"/>
      <path class="cls-1" d="m21.1.43s-4.24,2.62-4.1,4.05,4.05,2.62,4.05,4.05-4.05,4.05-4.05,4.05"/>
      <path class="cls-1" d="m26.1.43s-4.24,2.62-4.1,4.05,4.05,2.62,4.05,4.05-4.05,4.05-4.05,4.05"/>
      <path class="cls-1" d="m4.04,20.87c.28-.85,1.04-1.89,2.07-2.07,1.19-.21,1.57.92,3.1,1.03,1.39.1,1.5-.8,3.1-1.03,2.22-.32,2.84,1.3,5.17,1.03,1.61-.19,1.56-.99,3.1-1.03,1.93-.06,2.34,1.18,4.14,1.03,1.43-.12,1.67-.95,3.1-1.03.41-.02,1.96-.09,3.1,1.03.83.81,1,1.81,1.03,2.07.23,1.6-.75,3.38-2.07,4.14-2.16,1.24-3.75-1.11-8.28-1.03-3.33.05-3.27,1.34-6.21,1.03-2.89-.3-3.93-1.65-6.21-1.03-1.58.43-2.07,1.35-3.1,1.03-1.48-.45-2-2.8-2.07-3.1-.12-.54-.28-1.24,0-2.07Z"/>
      <rect class="cls-1" x="7.5" y="20.64" width="5" height="3.28" rx="1.64" ry="1.64" transform="translate(9.19 -2.13) rotate(22.26)"/>
      <rect class="cls-1" x="16.5" y="20.64" width="5" height="3.28" rx="1.64" ry="1.64"/>
      <rect class="cls-1" x="24.5" y="20.64" width="5" height="3.28" rx="1.64" ry="1.64" transform="translate(-7.29 15.21) rotate(-27.88)"/>
    </g>
  </g>
</svg>